<svg width="22" height="22" viewBox="0 0 22 22" fill="none" xmlns="http://www.w3.org/2000/svg">
<path d="M11.7182 19.9304L11.7182 3.51437L19.5245 11.3812C19.5899 11.4493 19.6684 11.5035 19.7552 11.5405C19.842 11.5775 19.9354 11.5966 20.0298 11.5966C20.1242 11.5966 20.2176 11.5775 20.3045 11.5405C20.3913 11.5035 20.4698 11.4493 20.5351 11.3812C20.671 11.2411 20.7457 11.0528 20.7428 10.8577C20.74 10.6625 20.6599 10.4765 20.52 10.3404L11.3899 1.21634C11.2504 1.07769 11.0616 0.999916 10.8649 1C10.768 0.999945 10.672 1.01903 10.5824 1.05615C10.4928 1.09327 10.4115 1.14771 10.343 1.21634L1.21594 10.3419C1.14751 10.4102 1.09322 10.4913 1.05618 10.5806C1.01913 10.6699 1.00007 10.7656 1.00007 10.8623C1.00007 10.959 1.01913 11.0547 1.05618 11.144C1.09322 11.2333 1.14751 11.3144 1.21594 11.3827C1.28322 11.451 1.36342 11.5053 1.45185 11.5423C1.54029 11.5793 1.6352 11.5984 1.73107 11.5984C1.82694 11.5984 1.92185 11.5793 2.01028 11.5423C2.09872 11.5053 2.17891 11.451 2.24619 11.3827L10.1025 3.51588L10.1025 19.9304C10.1219 20.1317 10.2157 20.3186 10.3655 20.4546C10.5153 20.5906 10.7103 20.6659 10.9126 20.6659C11.1149 20.6659 11.3099 20.5906 11.4597 20.4546C11.6095 20.3186 11.7033 20.1317 11.7227 19.9304H11.7182Z" fill="white" stroke="white" stroke-width="1.51286"/>
</svg>
